<?xml version="1.0" encoding="UTF-8"?>
<!DOCTYPE svg PUBLIC "-//W3C//DTD SVG 1.1//EN" "http://www.w3.org/Graphics/SVG/1.1/DTD/svg11.dtd">
<!-- Creator: CorelDRAW X7 -->
<svg xmlns="http://www.w3.org/2000/svg" xml:space="preserve" width="46.4903mm" height="46.4903mm" version="1.1" style="shape-rendering:geometricPrecision; text-rendering:geometricPrecision; image-rendering:optimizeQuality; fill-rule:evenodd; clip-rule:evenodd"
viewBox="0 0 3485 3485"
 xmlns:xlink="http://www.w3.org/1999/xlink">
 <defs>
  <style type="text/css">
   <![CDATA[
    .fil0 {fill:white}
   ]]>
  </style>
 </defs>
 <g id="Camada_x0020_1">
  <metadata id="CorelCorpID_0Corel-Layer"/>
  <path class="fil0" d="M1742 0c-960,0 -1742,782 -1742,1742 0,961 782,1743 1742,1743 961,0 1743,-782 1743,-1743 0,-960 -782,-1742 -1743,-1742zm434 1804l-284 0c0,453 0,1010 0,1010l-420 0c0,0 0,-552 0,-1010l-200 0 0 -357 200 0 0 -231c0,-166 79,-424 424,-424l311 1 0 347c0,0 -189,0 -226,0 -36,0 -89,18 -89,97l0 210 320 0 -36 357z"/>
 </g>
</svg>
