<?xml version="1.0" encoding="UTF-8"?>
<!DOCTYPE svg PUBLIC "-//W3C//DTD SVG 1.1//EN" "http://www.w3.org/Graphics/SVG/1.1/DTD/svg11.dtd">
<!-- Creator: CorelDRAW X7 -->
<svg xmlns="http://www.w3.org/2000/svg" xml:space="preserve" width="42.3332mm" height="41.2868mm" version="1.1" style="shape-rendering:geometricPrecision; text-rendering:geometricPrecision; image-rendering:optimizeQuality; fill-rule:evenodd; clip-rule:evenodd"
viewBox="0 0 3306 3224"
 xmlns:xlink="http://www.w3.org/1999/xlink">
 <defs>
  <style type="text/css">
   <![CDATA[
    .fil0 {fill:white}
   ]]>
  </style>
 </defs>
 <g id="Camada_x0020_1">
  <metadata id="CorelCorpID_0Corel-Layer"/>
  <path class="fil0" d="M1653 0c-913,0 -1653,740 -1653,1653 0,730 474,1350 1130,1568 83,15 113,-36 113,-79 0,-40 -1,-170 -2,-308 -460,100 -557,-195 -557,-195 -75,-191 -183,-242 -183,-242 -150,-103 11,-101 11,-101 166,12 253,171 253,171 148,252 387,179 481,137 15,-107 58,-180 105,-221 -367,-42 -753,-183 -753,-817 0,-180 65,-328 171,-443 -18,-42 -74,-210 16,-438 0,0 138,-44 454,170 132,-37 273,-55 414,-56 140,1 282,19 414,56 315,-214 454,-170 454,-170 90,228 33,396 16,438 106,115 170,263 170,443 0,635 -386,775 -754,816 59,51 112,152 112,306 0,221 -2,399 -2,454 0,44 30,95 113,79 657,-219 1130,-838 1130,-1568 0,-913 -740,-1653 -1653,-1653l0 0z"/>
 </g>
</svg>
