<?xml version="1.0" encoding="UTF-8"?>
<!DOCTYPE svg PUBLIC "-//W3C//DTD SVG 1.1//EN" "http://www.w3.org/Graphics/SVG/1.1/DTD/svg11.dtd">
<!-- Creator: CorelDRAW X7 -->
<svg xmlns="http://www.w3.org/2000/svg" xml:space="preserve" width="131.836mm" height="139.746mm" version="1.1" style="shape-rendering:geometricPrecision; text-rendering:geometricPrecision; image-rendering:optimizeQuality; fill-rule:evenodd; clip-rule:evenodd"
viewBox="0 0 13353 14155"
 xmlns:xlink="http://www.w3.org/1999/xlink">
 <defs>
  <style type="text/css">
   <![CDATA[
    .fil2 {fill:#556080}
    .fil0 {fill:#ffda56}
    .fil1 {fill:white}
   ]]>
  </style>
 </defs>
 <g id="Camada_x0020_1">
  <metadata id="CorelCorpID_0Corel-Layer"/>
  <g id="_655857472">
   <path class="fil0" d="M6677 2404c-2360,0 -4273,1913 -4273,4273 0,1893 1232,3496 2937,4057l0 2619 535 0 0 802 1602 0 0 -802 534 0 0 -2619c1705,-561 2938,-2164 2938,-4057 0,-2360 -1913,-4273 -4273,-4273z"/>
   <path class="fil0" d="M6677 0c-148,0 -267,119 -267,267l0 1068c0,148 119,267 267,267 147,0 267,-119 267,-267l0 -1068c0,-148 -120,-267 -267,-267z"/>
   <path class="fil0" d="M13086 6410l-1068 0c-148,0 -267,119 -267,267 0,147 119,267 267,267l1068 0c148,0 267,-120 267,-267 0,-148 -119,-267 -267,-267z"/>
   <path class="fil0" d="M1335 6410l-1068 0c-148,0 -267,119 -267,267 0,147 119,267 267,267l1068 0c148,0 267,-120 267,-267 0,-148 -119,-267 -267,-267z"/>
   <path class="fil0" d="M11020 1955l-755 756c-104,104 -104,273 0,377 52,52 121,79 189,79 68,0 137,-27 189,-79l755 -755c104,-104 104,-273 0,-378 -104,-104 -274,-104 -378,0z"/>
   <path class="fil0" d="M2711 10265l-756 755c-104,105 -104,274 0,378 53,52 121,78 189,78 69,0 137,-26 189,-78l755 -755c105,-105 105,-274 0,-378 -104,-104 -273,-104 -377,0z"/>
   <path class="fil0" d="M10643 10265c-105,-104 -274,-104 -378,0 -104,104 -104,273 0,378l755 755c52,52 121,78 189,78 69,0 137,-26 189,-78 104,-104 104,-273 0,-378l-755 -755z"/>
   <path class="fil0" d="M2333 1955c-104,-104 -273,-104 -378,0 -104,105 -104,274 0,378l756 755c52,52 120,79 189,79 68,0 136,-27 188,-79 105,-104 105,-273 0,-377l-755 -756z"/>
   <path class="fil1" d="M3739 6944c-148,0 -267,-120 -267,-267 0,-1767 1438,-3205 3205,-3205 147,0 267,119 267,267 0,148 -120,267 -267,267 -1473,0 -2671,1198 -2671,2671 0,147 -119,267 -267,267z"/>
   <polygon class="fil2" points="5341,11484 5341,13353 5876,13353 5876,14155 7478,14155 7478,13353 8012,13353 8012,11484 "/>
   <polygon class="fil1" points="5341,12174 8012,11799 8012,12044 5341,12419 "/>
   <polygon class="fil1" points="5341,12643 8012,12268 8012,12513 5341,12888 "/>
   <polygon class="fil1" points="5341,13112 8012,12737 8012,12981 5341,13356 "/>
   <polygon class="fil1" points="5341,11717 7003,11484 8012,11484 8012,11587 5341,11962 "/>
  </g>
 </g>
</svg>
