<?xml version="1.0" encoding="UTF-8"?>
<!DOCTYPE svg PUBLIC "-//W3C//DTD SVG 1.1//EN" "http://www.w3.org/Graphics/SVG/1.1/DTD/svg11.dtd">
<!-- Creator: CorelDRAW X7 -->
<svg xmlns="http://www.w3.org/2000/svg" xml:space="preserve" width="162.931mm" height="210mm" version="1.1" style="shape-rendering:geometricPrecision; text-rendering:geometricPrecision; image-rendering:optimizeQuality; fill-rule:evenodd; clip-rule:evenodd"
viewBox="0 0 15923 20523"
 xmlns:xlink="http://www.w3.org/1999/xlink">
 <defs>
  <style type="text/css">
   <![CDATA[
    .fil3 {fill:#41C6C2}
    .fil2 {fill:#4D4D4D}
    .fil1 {fill:#666666}
    .fil0 {fill:#E6E6E6}
   ]]>
  </style>
 </defs>
 <g id="Camada_x0020_1">
  <metadata id="CorelCorpID_0Corel-Layer"/>
  <polygon class="fil0" points="15923,4954 10969,0 0,0 0,20523 15923,20523 "/>
  <polygon class="fil1" points="10969,0 10969,4954 15923,4954 "/>
  <path class="fil2" d="M12385 7785l-5662 0c-195,0 -354,-158 -354,-354 0,-196 159,-354 354,-354l5662 0c195,0 354,158 354,354 0,196 -159,354 -354,354z"/>
  <path class="fil3" d="M3892 8139c-91,0 -182,-35 -250,-104l-708 -708c-138,-138 -138,-362 0,-500 138,-139 362,-139 500,0l484 484 1522 -1218c152,-122 376,-97 497,55 122,153 98,376 -55,498l-1769 1415c-65,52 -143,78 -221,78z"/>
  <path class="fil2" d="M12385 11677l-5662 0c-195,0 -354,-158 -354,-354 0,-195 159,-354 354,-354l5662 0c195,0 354,159 354,354 0,196 -159,354 -354,354z"/>
  <path class="fil3" d="M3892 12031c-91,0 -182,-35 -250,-104l-708 -707c-138,-139 -138,-362 0,-501 138,-138 362,-138 500,0l484 484 1522 -1218c152,-122 376,-97 497,55 122,153 98,376 -55,498l-1769 1415c-65,52 -143,78 -221,78z"/>
  <path class="fil2" d="M12385 15569l-5662 0c-195,0 -354,-158 -354,-353 0,-196 159,-354 354,-354l5662 0c195,0 354,158 354,354 0,195 -159,353 -354,353z"/>
  <path class="fil3" d="M3892 15923c-91,0 -182,-35 -250,-103l-708 -708c-138,-138 -138,-362 0,-500 138,-139 362,-139 500,0l484 483 1522 -1217c152,-122 376,-98 497,55 122,153 98,375 -55,497l-1769 1416c-65,52 -143,77 -221,77z"/>
  <g id="_661251360">
  </g>
  <g id="_661248672">
  </g>
  <g id="_661249376">
  </g>
  <g id="_661248928">
  </g>
  <g id="_661243744">
  </g>
  <g id="_661248736">
  </g>
  <g id="_661242688">
  </g>
  <g id="_661250336">
  </g>
  <g id="_661249952">
  </g>
  <g id="_661250144">
  </g>
  <g id="_661250720">
  </g>
  <g id="_661252672">
  </g>
  <g id="_661245920">
  </g>
  <g id="_661245440">
  </g>
  <g id="_661245472">
  </g>
  <g id="_661240224">
  </g>
  <g id="_661244896">
  </g>
  <g id="_661246112">
  </g>
  <g id="_661252640">
  </g>
  <g id="_661244704">
  </g>
  <g id="_661240768">
  </g>
  <g id="_661240832">
  </g>
  <g id="_661240000">
  </g>
  <g id="_661244000">
  </g>
  <g id="_661240672">
  </g>
  <g id="_661241632">
  </g>
  <g id="_661254944">
  </g>
  <g id="_661250016">
  </g>
  <g id="_661253024">
  </g>
  <g id="_661254080">
  </g>
 </g>
</svg>
