<?xml version="1.0" encoding="UTF-8"?>
<!DOCTYPE svg PUBLIC "-//W3C//DTD SVG 1.1//EN" "http://www.w3.org/Graphics/SVG/1.1/DTD/svg11.dtd">
<!-- Creator: CorelDRAW X7 -->
<svg xmlns="http://www.w3.org/2000/svg" xml:space="preserve" width="46.2474mm" height="46.2474mm" version="1.1" style="shape-rendering:geometricPrecision; text-rendering:geometricPrecision; image-rendering:optimizeQuality; fill-rule:evenodd; clip-rule:evenodd"
viewBox="0 0 3532 3532"
 xmlns:xlink="http://www.w3.org/1999/xlink">
 <defs>
  <style type="text/css">
   <![CDATA[
    .fil0 {fill:white}
   ]]>
  </style>
 </defs>
 <g id="Camada_x0020_1">
  <metadata id="CorelCorpID_0Corel-Layer"/>
  <path class="fil0" d="M1766 0c-974,0 -1766,792 -1766,1766 0,974 792,1766 1766,1766 974,0 1766,-792 1766,-1766 0,-974 -792,-1766 -1766,-1766zm937 2565c0,75 -62,136 -139,136l-1607 0c-77,0 -139,-61 -139,-136l0 -1625c0,-75 62,-136 139,-136l1607 0c76,0 139,61 139,136l0 1625z"/>
 </g>
</svg>
