<?xml version="1.0" encoding="UTF-8"?>
<!DOCTYPE svg PUBLIC "-//W3C//DTD SVG 1.1//EN" "http://www.w3.org/Graphics/SVG/1.1/DTD/svg11.dtd">
<!-- Creator: CorelDRAW X7 -->
<svg xmlns="http://www.w3.org/2000/svg" xml:space="preserve" width="165.921mm" height="165.921mm" version="1.1" style="shape-rendering:geometricPrecision; text-rendering:geometricPrecision; image-rendering:optimizeQuality; fill-rule:evenodd; clip-rule:evenodd"
viewBox="0 0 17674 17674"
 xmlns:xlink="http://www.w3.org/1999/xlink">
 <defs>
  <style type="text/css">
   <![CDATA[
    .fil0 {fill:white}
   ]]>
  </style>
 </defs>
 <g id="Camada_x0020_1">
  <metadata id="CorelCorpID_0Corel-Layer"/>
  <g id="_660235168">
   <path class="fil0" d="M5302 5455l-976 0 2661 7521 1489 -4257 -1155 -3264 -1029 0 0 -717 4560 0 0 717 -1068 0 2661 7521 956 -2733c1255,-3502 -1028,-4593 -1028,-5374 0,-782 634,-1415 1415,-1415 42,0 83,2 124,6 -1325,-1250 -3110,-2017 -5075,-2017 -2567,0 -4829,1309 -6154,3295l2619 0 0 717 0 0z"/>
   <path class="fil0" d="M1443 8837c0,2831 1591,5290 3928,6533l-3337 -9433c-380,890 -591,1871 -591,2900z"/>
   <path class="fil0" d="M15272 5194c106,622 74,1322 -88,2025l29 0 -112 319 0 0c-66,231 -149,467 -244,699l-2544 7128c2331,-1244 3918,-3701 3918,-6528 0,-1325 -348,-2568 -959,-3643z"/>
   <path class="fil0" d="M6557 15872c718,233 1484,359 2280,359 759,0 1492,-114 2181,-327l-2163 -6114 -2298 6082z"/>
   <path class="fil0" d="M15086 2588c-1669,-1669 -3888,-2588 -6249,-2588 -2360,0 -4580,919 -6249,2588 -1669,1669 -2588,3889 -2588,6249 0,2361 919,4580 2588,6249 1669,1669 3889,2588 6249,2588 2361,0 4580,-919 6249,-2588 1669,-1669 2588,-3888 2588,-6249 0,-2360 -919,-4580 -2588,-6249zm-6249 14463c-4529,0 -8214,-3685 -8214,-8214 0,-4529 3685,-8214 8214,-8214 4529,0 8214,3685 8214,8214 0,4529 -3685,8214 -8214,8214z"/>
  </g>
 </g>
</svg>
