<?xml version="1.0" encoding="UTF-8"?>
<!DOCTYPE svg PUBLIC "-//W3C//DTD SVG 1.1//EN" "http://www.w3.org/Graphics/SVG/1.1/DTD/svg11.dtd">
<!-- Creator: CorelDRAW X7 -->
<svg xmlns="http://www.w3.org/2000/svg" xml:space="preserve" width="7.5784mm" height="7.5784mm" version="1.1" style="shape-rendering:geometricPrecision; text-rendering:geometricPrecision; image-rendering:optimizeQuality; fill-rule:evenodd; clip-rule:evenodd"
viewBox="0 0 260 260"
 xmlns:xlink="http://www.w3.org/1999/xlink">
 <defs>
  <style type="text/css">
   <![CDATA[
    .fil1 {fill:#005C9D}
    .fil0 {fill:white}
   ]]>
  </style>
 </defs>
 <g id="Camada_x0020_1">
  <metadata id="CorelCorpID_0Corel-Layer"/>
  <circle class="fil0" transform="matrix(0.21291 0.103314 -0.103314 0.21291 129.965 129.965)" r="549"/>
  <g id="_623330112">
   <g>
    <path class="fil1" d="M79 81l-14 0 38 108 22 -61 -17 -47 -15 0 0 -10 66 0 0 10 -15 0 38 108 14 -39c18,-50 -15,-66 -15,-77 0,-11 9,-20 20,-20 1,0 1,0 2,0 -19,-18 -45,-29 -73,-29 -37,0 -69,19 -88,47l37 0 0 10 0 0z"/>
    <path class="fil1" d="M24 130c0,41 23,76 56,94l-48 -136c-5,13 -8,27 -8,42z"/>
    <path class="fil1" d="M222 78c2,9 1,19 -1,29l1 0 -2 4 0 0c-1,4 -2,7 -4,10l-36 103c33,-18 56,-53 56,-94 0,-19 -5,-37 -14,-52z"/>
    <path class="fil1" d="M97 231c11,3 22,5 33,5 11,0 21,-1 31,-5l-31 -87 -33 87z"/>
    <path class="fil1" d="M220 40c-24,-24 -56,-37 -90,-37 -34,0 -66,13 -90,37 -24,24 -37,56 -37,90 0,34 13,66 37,90 24,24 56,37 90,37 34,0 66,-13 90,-37 24,-24 37,-56 37,-90 0,-34 -13,-66 -37,-90zm-90 208c-65,0 -118,-53 -118,-118 0,-65 53,-118 118,-118 65,0 118,53 118,118 0,65 -53,118 -118,118z"/>
   </g>
   <g>
   </g>
   <g>
   </g>
   <g>
   </g>
   <g>
   </g>
   <g>
   </g>
   <g>
   </g>
   <g>
   </g>
   <g>
   </g>
   <g>
   </g>
   <g>
   </g>
   <g>
   </g>
   <g>
   </g>
   <g>
   </g>
   <g>
   </g>
   <g>
   </g>
  </g>
 </g>
</svg>
